<?xml version="1.0" standalone="no"?><!DOCTYPE svg PUBLIC "-//W3C//DTD SVG 1.1//EN" "http://www.w3.org/Graphics/SVG/1.1/DTD/svg11.dtd"><svg t="1672123993924" class="icon" viewBox="0 0 1024 1024" version="1.1" xmlns="http://www.w3.org/2000/svg" p-id="2457" xmlns:xlink="http://www.w3.org/1999/xlink" width="200" height="200"><path d="M341.333333 661.333333a117.376 117.376 0 0 1 112.917334 85.333334H875.093333v64H454.250667a117.376 117.376 0 0 1-225.834667 0H149.76v-64h78.656A117.376 117.376 0 0 1 341.333333 661.333333z m0 64a53.333333 53.333333 0 1 0 0 106.666667 53.333333 53.333333 0 0 0 0-106.666667z m341.333334-320a117.376 117.376 0 0 1 112.917333 85.333334h79.509333v64h-79.509333a117.376 117.376 0 0 1-225.834667 0H149.76v-64h419.989333A117.376 117.376 0 0 1 682.666667 405.333333z m0 64a53.333333 53.333333 0 1 0 0 106.666667 53.333333 53.333333 0 0 0 0-106.666667zM341.333333 149.333333a117.376 117.376 0 0 1 112.917334 85.333334H875.093333v64H454.250667a117.376 117.376 0 0 1-225.834667 0H149.76v-64h78.656A117.376 117.376 0 0 1 341.333333 149.333333z m0 64a53.333333 53.333333 0 1 0 0 106.666667 53.333333 53.333333 0 0 0 0-106.666667z" fill="#1677FF" p-id="2458"></path></svg>